<svg width="48" height="20" viewBox="0 0 48 20" fill="none" xmlns="http://www.w3.org/2000/svg">
<path fill-rule="evenodd" clip-rule="evenodd" d="M1.00005 10.1042C0.996197 9.0965 1.22156 8.10115 1.65909 7.19342C3.03209 4.44742 6.90394 2.99205 10.1168 2.33301C12.4338 1.83854 14.7829 1.5082 17.1465 1.34445C21.5225 0.960053 25.9238 0.960053 30.2998 1.34445C32.6632 1.51009 35.0122 1.84041 37.3296 2.33301C40.5424 2.99205 44.4142 4.31012 45.7872 7.19342C46.6671 9.0438 46.6671 11.192 45.7872 13.0424C44.4142 15.9257 40.5424 17.2438 37.3296 17.8753C35.0152 18.3903 32.6653 18.7299 30.2998 18.8914C26.7381 19.1933 23.1598 19.2483 19.5904 19.0561C18.7666 19.0561 17.9703 19.0561 17.1465 18.8914C14.7899 18.7319 12.449 18.3922 10.1442 17.8753C6.90394 17.2438 3.05954 15.9257 1.65909 13.0424C1.22379 12.1241 0.998656 11.1204 1.00005 10.1042Z" stroke="white" stroke-width="1.5" stroke-linecap="round" stroke-linejoin="round"/>
</svg>
